<?xml version="1.0" encoding="UTF-8" standalone="no"?>
<svg
   version="1.1"
   width="200"
   height="200"
   viewBox="0 0 200 200"
   id="svg113"
   sodipodi:docname="star.svg"
   inkscape:version="1.2.2 (b0a84865, 2022-12-01)"
   xmlns:inkscape="http://www.inkscape.org/namespaces/inkscape"
   xmlns:sodipodi="http://sodipodi.sourceforge.net/DTD/sodipodi-0.dtd"
   xmlns="http://www.w3.org/2000/svg"
   xmlns:svg="http://www.w3.org/2000/svg">
  <defs
     id="defs117" />
  <sodipodi:namedview
     id="namedview115"
     pagecolor="#ffffff"
     bordercolor="#000000"
     borderopacity="0.25"
     inkscape:showpageshadow="2"
     inkscape:pageopacity="0.0"
     inkscape:pagecheckerboard="0"
     inkscape:deskcolor="#d1d1d1"
     showgrid="false"
     inkscape:zoom="3.0345619"
     inkscape:cx="150.43358"
     inkscape:cy="86.832962"
     inkscape:window-width="1512"
     inkscape:window-height="945"
     inkscape:window-x="0"
     inkscape:window-y="37"
     inkscape:window-maximized="0"
     inkscape:current-layer="svg113" />
  <path
     stroke="#ff0000"
     d="M 100.94133,195.50899 131.55469,133.20306 200.0119,123.21174 150.4753,74.71225 162.17064,6.23835 100.94133,38.563844 39.712872,6.23835 51.40863,74.71225 1.8716323,123.21174 70.329249,133.20306 Z"
     id="path109"
     style="fill:none;stroke-width:0.431795" />
  <path
     stroke="#00ff00"
     d="m 100.0066,6.238348 30.61337,62.305922 68.4572,9.991317 -49.53659,48.499493 11.69534,68.47391 L 100.0066,163.18348 38.778159,195.50899 50.473909,127.03508 0.93691161,78.535587 69.394532,68.54427 Z"
     id="path111"
     style="fill:none;fill-opacity:1;stroke-width:0.431795" />
  <path
     stroke="#0000ff"
     d="m 6.6714123,100.66419 62.0319887,30.74854 9.947379,68.75953 48.28626,-49.75535 68.17284,11.74697 L 162.9265,100.66419 195.10988,39.165338 126.93704,50.912751 78.65078,1.1569792 68.703401,69.91692 Z"
     id="path109-7"
     style="fill:none;stroke-width:0.431795" />
  <path
     stroke="#ffff00"
     d="M 194.79313,100.61117 132.76115,69.86262 122.81376,1.1030824 74.527514,50.858431 6.3546715,39.111467 38.538043,100.61117 6.3546648,162.11001 74.527514,150.36262 l 48.286246,49.75576 9.94739,-68.75995 z"
     id="path109-7-9"
     style="fill:none;stroke-width:0.431795"
     inkscape:transform-center-x="0.046510127"
     inkscape:transform-center-y="7.5163524" />
</svg>
